<?xml version="1.0" encoding="UTF-8"?>
<!DOCTYPE svg PUBLIC "-//W3C//DTD SVG 1.1//EN" "http://www.w3.org/Graphics/SVG/1.1/DTD/svg11.dtd">
<!-- Creator: CorelDRAW 2020 (64-Bit) -->
<svg xmlns="http://www.w3.org/2000/svg" xml:space="preserve" width="50.5906mm" height="50.5906mm" version="1.1" style="shape-rendering:geometricPrecision; text-rendering:geometricPrecision; image-rendering:optimizeQuality; fill-rule:evenodd; clip-rule:evenodd"
viewBox="0 0 600.66 600.66"
 xmlns:xlink="http://www.w3.org/1999/xlink"
 xmlns:xodm="http://www.corel.com/coreldraw/odm/2003">
 <defs>
  <style type="text/css">
   <![CDATA[
    .fil0 {fill:#066163}
    .fil1 {fill:#CDBE78;fill-rule:nonzero}
   ]]>
  </style>
 </defs>
 <g id="Capa_x0020_1">
  <metadata id="CorelCorpID_0Corel-Layer"/>
  <rect class="fil0" x="0" y="0" width="600.66" height="600.66" rx="378.37" ry="378.37"/>
  <g id="_2210910450784">
   <path class="fil1" d="M455.04 139l-70.18 70.18c-17.62,-15.03 -37.83,-23.64 -60.74,-26.02 -22.81,-2.28 -44.47,0.73 -64.89,9.12 -20.52,8.4 -37.73,21.46 -51.83,39.18 -14.1,17.73 -21.15,38.97 -21.15,63.96 0,51.21 19.28,87.69 57.85,109.46 38.66,21.77 79.5,21.56 122.63,-0.52l-0.82 -55.84 0 -0.05 49.99 -50.05 0.21 0 51.07 0 1.24 136c-32.76,40.74 -71.52,66.03 -116.31,75.77 -44.78,9.85 -87.18,7.36 -127.4,-7.36 -40.22,-14.82 -74.12,-40.33 -101.69,-76.4 -27.68,-36.18 -40.74,-79.82 -39.08,-131.03 1.25,-48 15.03,-88.63 41.46,-122.01 26.44,-33.28 58.47,-57.43 96.3,-72.36 37.73,-15.03 77.75,-19.8 120.04,-14.3 42.4,5.49 80.13,22.91 113.3,52.24zm-89.14 209.48l49.99 -50.05 -49.99 50.05z"/>
  </g>
 </g>
</svg>
