<svg width="5" height="5" viewBox="0 0 5 5" fill="none" xmlns="http://www.w3.org/2000/svg">
<g clip-path="url(#clip0_23_6)">
<path d="M0.575582 0C0.89658 0 1.15116 0.254585 1.15116 0.575582C1.15116 0.89658 0.89658 1.15116 0.575582 1.15116C0.254585 1.15116 0 0.89658 0 0.575582C0 0.254585 0.254585 0 0.575582 0ZM0.0774823 1.59392H1.07368V4.8039H0.0774823V1.59392V1.59392Z" fill="#CDBE78"/>
<path d="M1.70468 1.59392H2.6566V2.03668H2.66767C2.8005 1.78209 3.12149 1.51644 3.60853 1.51644C4.61579 1.51644 4.80397 2.18057 4.80397 3.04395V4.8039H3.80777V3.24319C3.80777 2.86685 3.7967 2.39088 3.28753 2.39088C2.76729 2.39088 2.68981 2.80043 2.68981 3.22105V4.81497H1.69361V1.60499L1.70468 1.59392Z" fill="#CDBE78"/>
</g>
<defs>
<clipPath id="clip0_23_6">
<rect width="4.8151" height="4.8039" fill="CDBE78"/>
</clipPath>
</defs>
</svg>
