<?xml version="1.0" encoding="UTF-8"?>
<!DOCTYPE svg PUBLIC "-//W3C//DTD SVG 1.1//EN" "http://www.w3.org/Graphics/SVG/1.1/DTD/svg11.dtd">
<!-- Creator: CorelDRAW 2020 (64-Bit) -->
<svg xmlns="http://www.w3.org/2000/svg" xml:space="preserve" width="847px" height="821px" version="1.1" style="shape-rendering:geometricPrecision; text-rendering:geometricPrecision; image-rendering:optimizeQuality; fill-rule:evenodd; clip-rule:evenodd"
viewBox="0 0 107.3 104.13"
 xmlns:xlink="http://www.w3.org/1999/xlink"
 xmlns:xodm="http://www.corel.com/coreldraw/odm/2003">
 <defs>
  <style type="text/css">
   <![CDATA[
    .fil20 {fill:black;fill-rule:nonzero}
    .fil1 {fill:#055657;fill-rule:nonzero}
    .fil2 {fill:#066163;fill-rule:nonzero}
    .fil16 {fill:#1C8DF2;fill-rule:nonzero}
    .fil4 {fill:#24A7FF;fill-rule:nonzero}
    .fil14 {fill:#30B0FF;fill-rule:nonzero}
    .fil12 {fill:#45FFAA;fill-rule:nonzero}
    .fil0 {fill:#64FFDA;fill-rule:nonzero}
    .fil18 {fill:#98A2AD;fill-rule:nonzero}
    .fil23 {fill:#99FF00;fill-rule:nonzero}
    .fil21 {fill:#99FF00;fill-rule:nonzero}
    .fil11 {fill:#9CFFEC;fill-rule:nonzero}
    .fil3 {fill:#A6E7FF;fill-rule:nonzero}
    .fil19 {fill:#BCC8D6;fill-rule:nonzero}
    .fil17 {fill:#EFF0F2;fill-rule:nonzero}
    .fil22 {fill:#FF9933;fill-rule:nonzero}
    .fil6 {fill:white;fill-rule:nonzero}
    .fil25 {fill:#99FF00;fill-rule:nonzero;fill-opacity:0.501961}
    .fil24 {fill:#99FF00;fill-rule:nonzero;fill-opacity:0.690196}
    .fil5 {fill:url(#id0)}
    .fil13 {fill:url(#id1)}
    .fil7 {fill:url(#id2)}
    .fil15 {fill:url(#id3)}
    .fil9 {fill:url(#id4)}
    .fil8 {fill:url(#id5)}
    .fil10 {fill:url(#id6)}
   ]]>
  </style>
  <linearGradient id="id0" gradientUnits="userSpaceOnUse" x1="29.52" y1="83.39" x2="41.94" y2="61.88">
   <stop offset="0" style="stop-opacity:1; stop-color:#0036C9"/>
   <stop offset="0.141176" style="stop-opacity:1; stop-color:#0036C9"/>
   <stop offset="0.509804" style="stop-opacity:1; stop-color:#126EE4"/>
   <stop offset="1" style="stop-opacity:1; stop-color:#24A7FF"/>
  </linearGradient>
  <linearGradient id="id1" gradientUnits="userSpaceOnUse" x1="67.06" y1="78.5" x2="72.91" y2="68.36">
   <stop offset="0" style="stop-opacity:1; stop-color:#00C961"/>
   <stop offset="0.160784" style="stop-opacity:1; stop-color:#00C961"/>
   <stop offset="1" style="stop-opacity:1; stop-color:#45FFAA"/>
  </linearGradient>
  <linearGradient id="id2" gradientUnits="userSpaceOnUse" x1="47.65" y1="53.24" x2="23.24" y2="91.98">
   <stop offset="0" style="stop-opacity:1; stop-color:#29E88E"/>
   <stop offset="0.560784" style="stop-opacity:1; stop-color:#67C79A"/>
   <stop offset="1" style="stop-opacity:1; stop-color:#A6A6A6"/>
  </linearGradient>
  <linearGradient id="id3" gradientUnits="userSpaceOnUse" x1="63.55" y1="49.76" x2="82.35" y2="17.24">
   <stop offset="0" style="stop-opacity:1; stop-color:#D6E0EB"/>
   <stop offset="0.458824" style="stop-opacity:1; stop-color:#D6E0EB"/>
   <stop offset="0.490196" style="stop-opacity:1; stop-color:#DFEAF5"/>
   <stop offset="0.501961" style="stop-opacity:1; stop-color:#E8F4FF"/>
   <stop offset="0.513725" style="stop-opacity:1; stop-color:#ECF6FF"/>
   <stop offset="0.529412" style="stop-opacity:1; stop-color:aliceblue"/>
   <stop offset="0.537255" style="stop-opacity:1; stop-color:#E3ECF5"/>
   <stop offset="0.560784" style="stop-opacity:1; stop-color:#D6E0EB"/>
   <stop offset="1" style="stop-opacity:1; stop-color:#D6E0EB"/>
  </linearGradient>
  <linearGradient id="id4" gradientUnits="userSpaceOnUse" x1="3.46" y1="82.62" x2="60.66" y2="82.62">
   <stop offset="0" style="stop-opacity:1; stop-color:#2DBCFF"/>
   <stop offset="0.560784" style="stop-opacity:1; stop-color:#46C3CC"/>
   <stop offset="1" style="stop-opacity:1; stop-color:#60CB98"/>
  </linearGradient>
  <linearGradient id="id5" gradientUnits="userSpaceOnUse" x1="69.56" y1="63.14" x2="3.34" y2="63.14">
   <stop offset="0" style="stop-opacity:1; stop-color:#29E88E"/>
   <stop offset="0.560784" style="stop-opacity:1; stop-color:#2BD2C6"/>
   <stop offset="1" style="stop-opacity:1; stop-color:#2DBCFF"/>
  </linearGradient>
  <linearGradient id="id6" gradientUnits="userSpaceOnUse" xlink:href="#id2" x1="73.08" y1="66.1" x2="48.74" y2="108.26">
  </linearGradient>
 </defs>
 <g id="Capa_x0020_1">
  <metadata id="CorelCorpID_0Corel-Layer"/>
  <g id="_2262186507984">
   <polygon class="fil0" points="78.12,59.33 77.37,58.9 78.9,58.02 77.5,57.21 75.97,58.1 75.23,57.67 78.77,55.62 79.52,56.05 78.13,56.85 79.53,57.66 80.92,56.85 81.66,57.29 "/>
   <polygon class="fil0" points="82.38,59.39 84.58,58.97 85.38,59.43 82.05,60.01 80.67,60.81 79.92,60.38 81.28,59.59 82.3,57.65 83.11,58.12 "/>
   <path class="fil0" d="M86.41 62.06c0.76,-0.44 0.81,-0.86 0.14,-1.24l-0.4 -0.23 -2.31 1.33 0.32 0.19c0.72,0.41 1.47,0.4 2.25,-0.05zm0.8 0.43c-0.59,0.34 -1.2,0.51 -1.84,0.49 -0.64,-0.01 -1.28,-0.19 -1.9,-0.55l-1 -0.58 3.55 -2.05 1.11 0.64c0.57,0.33 0.87,0.68 0.88,1.04 0.01,0.36 -0.26,0.7 -0.8,1.01z"/>
   <path class="fil0" d="M89.04 63.36l0.24 0.14c0.24,0.14 0.45,0.22 0.65,0.24 0.19,0.02 0.37,-0.02 0.54,-0.12 0.17,-0.1 0.23,-0.2 0.18,-0.31 -0.04,-0.11 -0.18,-0.23 -0.42,-0.37l-0.23 -0.13 -0.96 0.55zm-0.61 0.36l-1.36 0.78 -0.75 -0.43 3.55 -2.05 1.03 0.6c0.48,0.27 0.74,0.53 0.8,0.76 0.05,0.24 -0.1,0.46 -0.46,0.66 -0.21,0.12 -0.45,0.2 -0.73,0.23 -0.27,0.02 -0.56,0 -0.86,-0.06 -0.27,0.76 -0.44,1.26 -0.51,1.49l-0.83 -0.48 0.52 -1.27 -0.4 -0.23z"/>
   <path class="fil0" d="M92.18 65.4c-0.4,0.23 -0.62,0.44 -0.67,0.65 -0.05,0.2 0.07,0.39 0.37,0.56 0.6,0.34 1.29,0.28 2.09,-0.18 0.8,-0.46 0.9,-0.86 0.31,-1.2 -0.3,-0.17 -0.62,-0.25 -0.98,-0.22 -0.35,0.03 -0.72,0.16 -1.12,0.39zm2.57 1.49c-0.58,0.34 -1.18,0.51 -1.78,0.53 -0.61,0.01 -1.18,-0.14 -1.72,-0.45 -0.54,-0.31 -0.8,-0.64 -0.77,-0.99 0.02,-0.35 0.33,-0.69 0.92,-1.03 0.59,-0.35 1.19,-0.52 1.79,-0.53 0.6,-0.02 1.17,0.13 1.72,0.45 0.54,0.31 0.79,0.64 0.77,0.99 -0.03,0.34 -0.34,0.69 -0.93,1.03z"/>
   <path class="fil0" d="M97.23 68.07l1.4 0.81 -1.84 1.06c-0.3,-0.09 -0.57,-0.18 -0.8,-0.28 -0.23,-0.1 -0.45,-0.21 -0.66,-0.33 -0.53,-0.31 -0.78,-0.63 -0.74,-0.98 0.03,-0.34 0.34,-0.68 0.93,-1.02 0.57,-0.33 1.18,-0.5 1.83,-0.49 0.65,0 1.26,0.17 1.83,0.5 0.37,0.21 0.64,0.45 0.83,0.73l-0.85 0.21c-0.13,-0.23 -0.33,-0.42 -0.61,-0.58 -0.32,-0.19 -0.69,-0.27 -1.1,-0.26 -0.41,0.02 -0.81,0.13 -1.17,0.34 -0.39,0.22 -0.61,0.44 -0.65,0.65 -0.05,0.2 0.08,0.39 0.38,0.57 0.15,0.09 0.33,0.17 0.52,0.24l0.74 -0.42 -0.67 -0.39 0.63 -0.36z"/>
   <polygon class="fil0" points="99.7,71.8 97.67,70.62 101.22,68.57 103.25,69.75 102.63,70.1 101.35,69.36 100.57,69.81 101.76,70.5 101.15,70.86 99.95,70.17 99.04,70.7 100.32,71.44 "/>
   <path class="fil0" d="M103.75 74.14l-0.94 -0.55 1.15 -2.44 -0.03 -0.01c-0.44,0.29 -0.76,0.5 -0.97,0.61l-1.66 0.97 -0.67 -0.39 3.55 -2.05 0.94 0.55 -1.13 2.42 0.02 0.01c0.44,-0.28 0.75,-0.48 0.94,-0.59l1.68 -0.97 0.67 0.39 -3.55 2.05z"/>
   <polygon class="fil0" points="93.78,58.8 91.93,57.73 95.73,55.54 92.26,53.54 88.47,55.73 86.61,54.66 95.41,49.58 97.27,50.65 93.82,52.64 97.28,54.64 100.73,52.65 102.58,53.72 "/>
   <path class="fil0" d="M85.22 53.88l-0.73 -0.43 2.01 -1.15 0.34 -0.19 0.37 -0.2c-0.24,0 -0.41,0 -0.49,-0.01l-0.72 -0.04 0.09 -0.46 2 0.13 0.6 0.34 -3.47 2.01z"/>
   <path class="fil0" d="M90.53 50.81l-0.73 -0.42 2 -1.16 0.34 -0.18 0.37 -0.21c-0.24,0 -0.4,0 -0.49,0l-0.71 -0.05 0.09 -0.45 2 0.12 0.6 0.35 -3.47 2z"/>
   <path class="fil1" d="M35.51 64.03c-8.76,0 -17.51,1.92 -24.16,5.76 -6.35,3.66 -9.84,8.51 -9.84,13.65 0,5.18 3.55,10.09 9.99,13.81 13.45,7.76 35.25,7.8 48.61,0.09l0 0c6.35,-3.66 9.84,-8.51 9.84,-13.65 0,-5.19 -3.55,-10.09 -9.99,-13.81 -6.75,-3.9 -15.61,-5.85 -24.45,-5.85zm0.44 40.1c-9.03,0 -18.08,-2 -24.97,-5.98 -6.78,-3.91 -10.51,-9.14 -10.51,-14.71 0,-5.53 3.68,-10.7 10.36,-14.56 13.64,-7.88 35.92,-7.84 49.65,0.09 6.78,3.92 10.51,9.14 10.51,14.72 0,5.53 -3.68,10.7 -10.36,14.55l0 0c-6.79,3.93 -15.73,5.89 -24.68,5.89z"/>
   <path class="fil1" d="M48.77 91.09c-7.16,4.13 -18.8,4.11 -26,-0.04 -7.2,-4.16 -7.24,-10.88 -0.08,-15.02 7.16,-4.13 18.8,-4.11 26,0.05 7.2,4.16 7.24,10.88 0.08,15.01z"/>
   <path class="fil2" d="M44.14 88.42c-4.61,2.67 -12.13,2.65 -16.77,-0.03 -4.65,-2.68 -4.67,-7.02 -0.05,-9.69 4.61,-2.66 12.13,-2.65 16.77,0.04 4.65,2.68 4.67,7.02 0.05,9.68z"/>
   <path class="fil1" d="M76.68 83.09c-3.62,2.09 -9.5,2.08 -13.14,-0.03 -3.63,-2.1 -3.65,-5.49 -0.04,-7.58 3.62,-2.09 9.5,-2.08 13.14,0.02 3.64,2.1 3.66,5.5 0.04,7.59z"/>
   <path class="fil2" d="M74.54 81.85c-2.44,1.41 -6.41,1.4 -8.87,-0.02 -2.45,-1.41 -2.46,-3.7 -0.02,-5.11 2.44,-1.41 6.4,-1.4 8.86,0.01 2.45,1.42 2.47,3.71 0.03,5.12z"/>
   <path class="fil3" d="M50.46 72.63c0,8.14 -6.59,14.74 -14.73,14.74 -8.14,0 -14.73,-6.6 -14.73,-14.74 0,-8.13 6.59,-14.73 14.73,-14.73 8.14,0 14.73,6.6 14.73,14.73z"/>
   <path class="fil4" d="M49.38 72.63c0,7.54 -6.11,13.66 -13.65,13.66 -7.54,0 -13.65,-6.12 -13.65,-13.66 0,-7.53 6.11,-13.65 13.65,-13.65 7.54,0 13.65,6.12 13.65,13.65z"/>
   <path class="fil5" d="M48.15 72.63c0,6.86 -5.56,12.43 -12.42,12.43 -6.86,0 -12.42,-5.57 -12.42,-12.43 0,-6.85 5.56,-12.42 12.42,-12.42 6.86,0 12.42,5.57 12.42,12.42z"/>
   <path class="fil6" d="M44.28 74.66c-0.25,-1.11 -0.63,-2.23 -1.1,-3.32 -0.09,0.05 -0.17,0.1 -0.26,0.15 -0.47,0.25 -0.96,0.48 -1.48,0.68 0.37,1.15 0.66,2.31 0.85,3.45 0.59,-0.23 1.16,-0.49 1.69,-0.79 0.1,-0.05 0.2,-0.11 0.3,-0.17l0 0zm0.11 5.28c0.16,-0.68 0.25,-1.44 0.25,-2.26 0,-0.24 -0.01,-0.47 -0.03,-0.71 -0.1,0.06 -0.2,0.12 -0.3,0.18 -0.56,0.3 -1.14,0.58 -1.76,0.81 0.01,0.24 0.02,0.48 0.02,0.71 0,0.83 -0.07,1.58 -0.19,2.24 0.6,-0.23 1.17,-0.5 1.71,-0.8 0.1,-0.06 0.2,-0.11 0.3,-0.17l0 0z"/>
   <path class="fil6" d="M46.79 75.2c-0.55,0.63 -1.28,1.23 -2.18,1.77 -0.1,0.06 -0.2,0.12 -0.3,0.18 -0.56,0.3 -1.14,0.58 -1.76,0.81 -1.05,0.41 -2.18,0.71 -3.34,0.91 -0.02,-0.77 -0.07,-1.57 -0.14,-2.38 1.13,-0.19 2.21,-0.48 3.22,-0.87 0.59,-0.23 1.16,-0.49 1.69,-0.79 0.1,-0.05 0.2,-0.11 0.3,-0.17 0.87,-0.51 1.57,-1.09 2.1,-1.71 0.22,0.75 0.36,1.5 0.41,2.25l0 0z"/>
   <path class="fil7" d="M60.08 58.51c-13.34,-7.7 -35.12,-7.66 -48.55,0.09 -6.55,3.78 -10.16,8.81 -10.16,14.16 0,5.3 3.55,10.27 10.01,14 6.64,3.83 15.38,5.75 24.13,5.75 8,0 16.01,-1.61 22.46,-4.8 0,-0.08 -0.01,-0.16 -0.01,-0.24 -13.45,6.71 -33.79,6.42 -46.47,-0.9 -6.39,-3.69 -9.91,-8.59 -9.91,-13.81 0,-5.27 3.58,-10.23 10.06,-13.97 13.37,-7.72 35.05,-7.76 48.33,-0.09 6.39,3.69 9.91,8.59 9.91,13.81 0,0.8 -0.09,1.6 -0.25,2.39l0.22 0c0.16,-0.79 0.24,-1.59 0.24,-2.39 0,-5.3 -3.55,-10.27 -10.01,-14z"/>
   <path class="fil8" d="M71.7 68.93c-0.49,-1.7 -1.75,-3.27 -2.77,-4.66 -2.06,-2.8 -4.81,-4.89 -7.71,-6.56 -5.87,-3.25 -13.19,-4.92 -19.76,-5.49 -3.3,-0.33 -6.61,-0.28 -9.9,-0.06 -0.82,0.08 -1.65,0.15 -2.47,0.23l-2.45 0.36c-0.82,0.1 -1.62,0.31 -2.43,0.46l-1.22 0.26c-0.4,0.08 -0.8,0.21 -1.2,0.31 -3.21,0.8 -6.33,1.99 -9.27,3.54 -1.49,0.74 -2.9,1.64 -4.24,2.63 -1.34,1 -2.6,2.13 -3.71,3.41 -1.1,1.28 -2.05,2.72 -2.73,4.29 -0.67,1.58 -1.05,3.3 -1.06,5.02l1.4 0.01c0.03,-1.52 0.37,-3.04 0.99,-4.45 0.62,-1.41 1.5,-2.72 2.53,-3.89 1.03,-1.17 2.22,-2.22 3.49,-3.16 1.28,-0.93 2.63,-1.77 4.06,-2.47 2.83,-1.45 5.84,-2.58 8.95,-3.32 0.39,-0.1 0.77,-0.22 1.17,-0.3l1.18 -0.23c0.78,-0.15 1.56,-0.34 2.36,-0.43l2.38 -0.33 2.4 -0.2c3.19,-0.19 6.41,-0.21 9.6,0.14 6.36,0.6 11.69,2.46 17.19,5.57 2.71,1.59 5.23,3.56 7.02,6.05 0.89,1.23 1.59,2.6 1.99,4.03 0.41,1.43 1.51,2.76 1.32,4.22l2.14 0.29c0.23,-1.77 1.25,-3.58 0.75,-5.27z"/>
   <path class="fil9" d="M59.82 86.48c-5.63,3.13 -12.15,4.54 -18.57,5.14 -6.42,0.6 -12.95,0.17 -19.19,-1.41 -3.13,-0.76 -6.15,-1.91 -8.98,-3.39 -1.44,-0.71 -2.79,-1.56 -4.06,-2.51 -1.27,-0.95 -2.45,-2.01 -3.47,-3.21 -1.02,-1.19 -1.88,-2.51 -2.48,-3.93 -0.59,-1.43 -0.9,-2.96 -0.89,-4.49l-1.4 -0.01c0,1.73 0.37,3.45 1.04,5.02 0.67,1.57 1.62,3.01 2.73,4.28 1.1,1.27 2.36,2.38 3.71,3.37 1.34,0.98 2.76,1.86 4.25,2.58 2.95,1.5 6.06,2.66 9.27,3.4 6.4,1.57 13.04,1.94 19.57,1.28 6.51,-0.67 12.84,-2.68 18.58,-5.93l-0.11 -0.19z"/>
   <path class="fil10" d="M69.3 76.22c0,0 0,0 -0.01,0 -0.03,0.03 -0.05,0.07 -0.06,0.11 -0.01,0.03 -0.03,0.07 -0.04,0.11 -0.06,0.16 -0.12,0.33 -0.18,0.49 -0.07,0.16 -0.13,0.32 -0.21,0.49 -0.07,0.16 -0.14,0.32 -0.22,0.48 -0.08,0.16 -0.16,0.32 -0.25,0.48 -0.08,0.16 -0.17,0.32 -0.26,0.47 -0.1,0.16 -0.19,0.32 -0.29,0.47 -0.1,0.16 -0.21,0.32 -0.31,0.47 -0.11,0.16 -0.22,0.31 -0.33,0.46 -0.11,0.16 -0.23,0.31 -0.35,0.46 -0.12,0.15 -0.24,0.3 -0.37,0.45 -0.13,0.15 -0.26,0.3 -0.39,0.45 -0.13,0.14 -0.27,0.29 -0.41,0.44 -0.14,0.14 -0.28,0.29 -0.43,0.43 -0.15,0.15 -0.3,0.29 -0.45,0.43 -0.16,0.14 -0.31,0.29 -0.47,0.42 -0.16,0.15 -0.32,0.28 -0.49,0.42 -0.17,0.14 -0.34,0.28 -0.51,0.41 -0.17,0.14 -0.35,0.27 -0.53,0.41 -0.18,0.13 -0.36,0.26 -0.54,0.39 -0.19,0.14 -0.38,0.27 -0.57,0.39 -0.19,0.13 -0.39,0.26 -0.58,0.39 -0.2,0.12 -0.4,0.25 -0.61,0.37 -0.2,0.13 -0.41,0.25 -0.62,0.37 -0.52,0.3 -1.06,0.59 -1.6,0.86 0.01,0.08 0.01,0.16 0.02,0.24 0.57,-0.29 1.14,-0.59 1.69,-0.91 0.17,-0.1 0.34,-0.2 0.51,-0.3 0.2,-0.12 0.41,-0.25 0.61,-0.38 0.19,-0.12 0.39,-0.25 0.59,-0.38 0.19,-0.13 0.38,-0.25 0.56,-0.39 0.19,-0.13 0.37,-0.26 0.56,-0.39 0.17,-0.13 0.35,-0.27 0.53,-0.41 0.17,-0.13 0.34,-0.27 0.51,-0.4 0.17,-0.14 0.33,-0.28 0.49,-0.42 0.16,-0.14 0.32,-0.28 0.48,-0.42 0.15,-0.14 0.3,-0.29 0.45,-0.43 0.15,-0.14 0.3,-0.29 0.44,-0.43 0.14,-0.15 0.28,-0.3 0.42,-0.44 0.13,-0.15 0.26,-0.3 0.39,-0.45 0.13,-0.15 0.25,-0.3 0.38,-0.45 0.12,-0.15 0.24,-0.3 0.35,-0.45 0.12,-0.16 0.23,-0.31 0.34,-0.47 0.11,-0.15 0.21,-0.3 0.32,-0.46 0.1,-0.16 0.2,-0.31 0.29,-0.47 0.1,-0.16 0.19,-0.32 0.28,-0.48 0.08,-0.15 0.17,-0.31 0.25,-0.47 0.08,-0.16 0.16,-0.32 0.24,-0.49 0.07,-0.16 0.14,-0.32 0.21,-0.48 0.07,-0.16 0.13,-0.33 0.19,-0.49 0.03,-0.08 0.06,-0.17 0.09,-0.25 0.01,-0.04 0.03,-0.09 0.03,-0.13 0,-0.05 -0.01,-0.09 -0.05,-0.12 -0.02,-0.01 -0.06,-0.01 -0.09,0z"/>
   <path class="fil11" d="M77.69 73.43c0,4.26 -3.45,7.71 -7.71,7.71 -4.25,0 -7.71,-3.45 -7.71,-7.71 0,-4.26 3.46,-7.71 7.71,-7.71 4.26,0 7.71,3.45 7.71,7.71z"/>
   <path class="fil12" d="M76.71 73.43c0,3.72 -3.01,6.73 -6.73,6.73 -3.71,0 -6.72,-3.01 -6.72,-6.73 0,-3.72 3.01,-6.73 6.72,-6.73 3.72,0 6.73,3.01 6.73,6.73z"/>
   <path class="fil13" d="M75.84 73.43c0,3.23 -2.62,5.85 -5.86,5.85 -3.23,0 -5.85,-2.62 -5.85,-5.85 0,-3.23 2.62,-5.86 5.85,-5.86 3.24,0 5.86,2.63 5.86,5.86z"/>
   <path class="fil6" d="M74.98 75.24c-0.25,0.25 -0.57,0.48 -0.94,0.68 -0.94,0.53 -2.09,0.83 -3.29,0.93 0,-0.02 0,-0.04 0,-0.06 0,-0.41 -0.01,-0.84 -0.03,-1.28 1.16,-0.09 2.28,-0.39 3.19,-0.89 0.36,-0.21 0.67,-0.43 0.92,-0.66 0.1,0.41 0.15,0.82 0.15,1.23 0,0.02 0,0.04 0,0.05l0 0z"/>
   <path class="fil14" d="M39.65 63.05c-0.86,0.96 -0.37,2.8 1.1,4.11 1.46,1.31 3.34,1.6 4.2,0.65 0.86,-0.96 0.37,-2.8 -1.1,-4.11 -1.46,-1.32 -3.34,-1.6 -4.2,-0.65z"/>
   <path class="fil12" d="M71.7 68.97c-0.42,0.47 -0.18,1.37 0.54,2.02 0.72,0.64 1.64,0.78 2.06,0.31 0.42,-0.46 0.18,-1.37 -0.54,-2.01 -0.71,-0.64 -1.64,-0.78 -2.06,-0.32z"/>
   <path class="fil1" d="M84.96 43.88l-6.27 -3.62 -16.6 9.59c-0.54,0.31 -0.54,1.08 0,1.39l4.59 2.65c1.04,0.6 2.32,0.6 3.35,0l14.93 -8.61c0.54,-0.31 0.54,-1.09 0,-1.4z"/>
   <path class="fil15" d="M80.04 15.85c-0.32,-0.19 -0.74,-0.17 -1.2,0.09l-15.55 8.98c-1,0.58 -1.82,2.14 -1.82,3.48l0 19.04c0,0.74 0.24,1.26 0.63,1.48l6.02 3.47 1.58 -2.92 12.91 -7.45c1.01,-0.58 1.83,-2.14 1.83,-3.48l0 -16.23 1.62 -2.99 -6.02 -3.47zm-17.94 33.07l0 0z"/>
   <path class="fil16" d="M61.47 47.44c0,0.74 0.24,1.26 0.63,1.48l3.52 2.03 2.5 1.44 1.24 -2.27 0 -2.5 -7.89 -4.56 0 4.38z"/>
   <path class="fil17" d="M84.86 43.32l-15.55 8.98c-1,0.58 -1.82,-0.04 -1.82,-1.38l0 -19.04c0,-1.34 0.82,-2.9 1.82,-3.49l15.55 -8.97c1.01,-0.58 1.82,0.03 1.82,1.38l0 19.03c0,1.35 -0.81,2.91 -1.82,3.49z"/>
   <path class="fil14" d="M84.86 43.32l-15.55 8.98c-1,0.58 -1.82,-0.04 -1.82,-1.38l0 -4.38 19.19 -11.08 0 4.37c0,1.35 -0.81,2.91 -1.82,3.49z"/>
   <polygon class="fil18" points="74.15,29.47 74.15,33.11 76.75,31.61 76.75,27.97 78.05,27.21 77.52,37.23 76.75,36.78 76.75,33.12 74.15,34.62 73.61,39.48 72.85,39.04 72.85,30.22 "/>
   <polygon class="fil19" points="77.52,32.05 76.75,31.61 74.15,33.11 74.92,33.55 "/>
   <path class="fil18" d="M82.23 33.98l-0.42 -0.19c0.03,-0.13 0.04,-0.26 0.05,-0.39 -0.09,0.03 -0.17,0.07 -0.26,0.1 -0.15,0.07 -0.31,0.14 -0.47,0.21 -0.09,0.03 -0.17,0.07 -0.26,0.11 0,0.02 0,0.03 0,0.05 0,0.36 -0.23,0.66 -0.78,1.13 -0.88,0.78 -1.29,1.56 -1.29,2.56l0 0.56 0.77 0.44 0.68 -1.28 1.59 -0.92 0 -1 -0.72 0.41 1.11 -1.79z"/>
   <path class="fil19" d="M81.84 35.36l-1.5 0.86c-0.01,0.06 -0.01,0.11 -0.02,0.16 -0.01,0.15 -0.03,0.3 -0.04,0.44l0.28 0.16 2.05 -1.18 -0.77 -0.44z"/>
   <path class="fil19" d="M82.26 32.91l-0.75 -0.43 0 0c-0.26,-0.16 -0.66,-0.11 -1.12,0.16 -0.89,0.51 -1.53,1.48 -1.55,2.58l0 0 0.77 0.45 0.83 -1.18 1.18 -1.03c0.08,-0.03 0.16,-0.06 0.24,-0.09 0,-0.02 0,-0.04 0,-0.05 0,-0.02 0,-0.04 0,-0.06l0.4 -0.35z"/>
   <polygon class="fil20" points="74.92,29.91 74.92,33.55 77.52,32.05 77.52,28.41 78.82,27.66 78.82,36.47 77.52,37.23 77.52,33.56 74.92,35.06 74.92,38.73 73.61,39.48 73.61,30.66 "/>
   <path class="fil20" d="M82.63 33.76c0,0.95 -0.53,1.61 -1.37,2.33 -0.44,0.36 -0.68,0.62 -0.7,0.89l2.05 -1.18 0 1.01 -3.04 1.75 0 -0.55c0,-1.01 0.4,-1.79 1.29,-2.56 0.54,-0.48 0.78,-0.78 0.78,-1.13 0,-0.33 -0.22,-0.38 -0.49,-0.22 -0.31,0.17 -0.57,0.54 -0.57,1.01l-0.97 0.56c0.02,-1.11 0.66,-2.07 1.55,-2.59 0.85,-0.48 1.47,-0.25 1.47,0.68z"/>
   <path class="fil19" d="M73.82 47.04l-0.09 0.05 0 -1.75 0.02 -0.01 0.67 -0.23c0.03,0.01 0.06,0.04 0.09,0.07 0.14,-0.01 0.27,-0.03 0.41,-0.04 -0.01,-0.07 -0.03,-0.13 -0.06,-0.18l0.1 -0.04 -0.27 -0.16 0 0c-0.17,-0.1 -0.39,-0.06 -0.69,0.11l-0.58 0.33 0 2.41 0.44 -0.25c-0.02,-0.1 -0.03,-0.2 -0.04,-0.31z"/>
   <path class="fil19" d="M74.93 45.16c-0.13,0.01 -0.27,0.02 -0.4,0.03 0.07,0.1 0.1,0.27 0.1,0.5 0,0.59 -0.23,1.02 -0.68,1.28l-0.1 0.06c0.01,0.1 0.02,0.21 0.03,0.31l0.07 -0.04c0.32,-0.19 0.7,-0.33 0.87,-0.64 0.17,-0.31 0.14,-0.77 0.14,-1.17 0,-0.13 -0.01,-0.24 -0.03,-0.33z"/>
   <polygon class="fil18" points="71.19,49.21 70.92,49.05 70.92,47.96 70.05,48.47 70.01,49.89 69.74,49.73 69.74,47.32 70.05,47.14 70.05,48.13 70.92,47.63 70.92,46.64 71.23,46.46 "/>
   <polygon class="fil19" points="70.92,47.63 71.19,47.78 70.32,48.29 70.05,48.13 "/>
   <polygon class="fil19" points="71.23,46.46 71.5,46.62 71.19,46.8 70.92,46.64 "/>
   <polygon class="fil18" points="72.32,46.93 72.77,45.57 73.11,45.37 72.48,47.21 72.44,48.49 72.17,48.33 72.17,47.41 71.54,46.28 71.88,46.08 "/>
   <polygon class="fil18" points="72.32,46.93 72.6,47.09 73.04,45.73 72.77,45.57 "/>
   <polygon class="fil19" points="73.11,45.37 73.38,45.53 73.04,45.73 72.77,45.57 "/>
   <polygon class="fil19" points="71.88,46.08 72.15,46.24 71.81,46.44 71.54,46.28 "/>
   <polygon class="fil18" points="73.42,47.6 73.69,47.76 73.69,45.35 73.42,45.19 "/>
   <path class="fil19" d="M76.68 44.05c-0.11,0.01 -0.22,0.03 -0.33,0.05 0.01,0.03 0.01,0.07 0.01,0.11 0,0.14 -0.03,0.26 -0.1,0.36 -0.06,0.11 -0.16,0.2 -0.31,0.28l-0.21 0.13 0 -0.79 0.05 -0.03 0.46 -0.18c0,0 0,0 0.01,0 0.04,0.01 0.06,0.04 0.08,0.09 0.11,-0.02 0.23,-0.04 0.34,-0.05l0 0c0,-0.08 -0.01,-0.15 -0.02,-0.2l0.15 -0.06 -0.28 -0.16 0 0c-0.01,0 -0.02,-0.01 -0.03,-0.01 -0.11,-0.05 -0.29,0 -0.54,0.14l-0.53 0.3 0 2.42 0.31 -0.18 0 -0.97 0.3 -0.17 0.45 0.7 0.36 -0.2 -0.39 -0.58c0.24,-0.26 0.22,-0.7 0.22,-1z"/>
   <polygon class="fil18" points="76.49,45.83 76.77,45.99 76.32,45.29 76.04,45.13 "/>
   <polygon class="fil18" points="75.43,46.45 75.7,46.6 75.7,44.19 75.43,44.03 "/>
   <path class="fil19" d="M77.47 44.51c-0.03,-0.11 -0.05,-0.25 -0.05,-0.42 0,-0.3 0.23,-0.43 0.32,-0.64 0.1,-0.21 0.12,-0.45 0.3,-0.55 0.18,-0.11 0.26,-0.15 0.35,-0.06 0.12,-0.08 0.27,-0.09 0.41,-0.08 0,-0.01 0,-0.02 -0.01,-0.03l0.06 -0.14 -0.27 -0.16 0 0c-0.15,-0.08 -0.35,-0.05 -0.6,0.09 -0.28,0.17 -0.5,0.4 -0.66,0.7 -0.15,0.3 -0.23,0.65 -0.23,1.05 0,0.4 0.08,0.66 0.23,0.79 0.02,0.02 0.04,0.03 0.05,0.04l0 0 0.28 0.16 0.06 -0.14c0.01,0 0.03,0 0.04,-0.01 -0.06,-0.09 -0.1,-0.2 -0.16,-0.3 -0.05,-0.09 -0.1,-0.19 -0.12,-0.3z"/>
   <path class="fil19" d="M80.8 42.04l-0.69 0.4 0 0.34 0.39 -0.23 0 0.62c-0.12,0.1 -0.22,0.18 -0.32,0.23 -0.1,0.06 -0.19,0.09 -0.27,0.1l0 0 -0.19 -0.11 0 0.26c0.12,0.04 0.22,0.1 0.34,0.15 0.02,-0.01 0.05,-0.02 0.07,-0.04 0.13,-0.07 0.43,0 0.54,-0.09 0.1,-0.08 0.41,-1.48 0.41,-1.48l-0.28 -0.15z"/>
   <path class="fil19" d="M78.81 42.78c-0.14,0 -0.28,0.01 -0.4,0.08 0.08,0.11 0.12,0.3 0.12,0.58 0,0.3 -0.04,0.56 -0.14,0.76 -0.09,0.21 -0.23,0.36 -0.41,0.47 -0.19,0.11 -0.32,0.11 -0.42,0.01 0,0 -0.01,-0.01 -0.01,-0.01 0.02,0.05 0.06,0.11 0.09,0.16 0.04,0.09 0.08,0.19 0.14,0.27 0.06,-0.02 0.13,-0.05 0.2,-0.09 0.28,-0.17 0.62,-0.12 0.78,-0.42 0.15,-0.31 0.1,-0.94 0.1,-1.34 0,-0.18 -0.02,-0.34 -0.05,-0.47z"/>
   <polygon class="fil18" points="80.5,43.17 80.77,43.33 80.77,42.71 80.5,42.83 "/>
   <polygon class="fil18" points="80.11,42.78 80.38,42.93 80.38,42.6 80.11,42.44 "/>
   <path class="fil19" d="M80.06 41.77l0.09 0.06 0.91 -0.62 -0.27 -0.16 0 0c-0.18,0.01 -0.37,0.07 -0.57,0.18 -0.3,0.18 -0.54,0.43 -0.72,0.75 -0.17,0.32 -0.26,0.67 -0.26,1.06 0,0.39 0.08,0.65 0.23,0.78 0.02,0.01 0.04,0.02 0.06,0.04l0 0 0.27 0.15 0.03 -0.12c0.06,-0.01 0.12,-0.04 0.2,-0.07 -0.11,-0.05 -0.21,-0.1 -0.31,-0.14 -0.01,0.01 -0.03,0.01 -0.03,-0.01l0 0c0,-0.01 -0.01,-0.01 -0.02,-0.01 -0.02,-0.01 -0.01,-0.04 0.01,-0.03 0,0 0.01,0 0.01,0.01l0 -0.27 -0.04 -0.02c-0.06,-0.11 -0.09,-0.27 -0.09,-0.49 0,-0.28 0.24,-0.43 0.35,-0.66 0.07,-0.14 0.1,-0.3 0.15,-0.43z"/>
   <polygon class="fil19" points="82.66,42.25 81.32,43.04 81.32,40.63 82.39,40.02 82.66,40.17 81.63,40.79 81.63,41.44 82.34,41.03 82.61,41.19 81.63,41.77 81.63,42.53 82.39,42.09 "/>
   <path class="fil19" d="M84.51 41.24l-0.45 0.22 -0.93 -1.38 -0.01 0 0.01 0.11c0.01,0.19 0.01,0.38 0.01,0.55l0 1.25 -0.28 0.16 0 -2.41 0.38 -0.21 0.27 0.15 0.65 1.22 0.01 0c0,-0.03 -0.02,-1.9 -0.02,-1.9l0.29 -0.17 0.27 0.16 -0.2 2.25z"/>
   <polygon class="fil18" points="84.06,41.46 84.33,41.62 83.4,40.24 83.13,40.08 "/>
   <polygon class="fil18" points="84.17,40.9 84.45,41.06 84.43,39.15 84.15,39 "/>
   <polygon class="fil6" points="71.5,49.03 71.19,49.21 71.19,48.12 70.32,48.62 70.32,49.71 70.01,49.89 70.01,47.48 70.32,47.3 70.32,48.29 71.19,47.78 71.19,46.8 71.5,46.62 "/>
   <polygon class="fil6" points="72.6,47.09 73.04,45.73 73.38,45.53 72.75,47.37 72.75,48.31 72.44,48.49 72.44,47.57 71.81,46.44 72.15,46.24 "/>
   <path class="fil6" d="M74.91 45.85c0,-0.58 -0.22,-0.75 -0.64,-0.5l-0.27 0.15 0 1.75 0.22 -0.12c0.46,-0.27 0.69,-0.69 0.69,-1.28zm0.32 -0.2c0,0.4 -0.09,0.75 -0.26,1.06 -0.17,0.31 -0.42,0.56 -0.75,0.75l-0.53 0.3 0 -2.41 0.59 -0.34c0.3,-0.17 0.53,-0.2 0.7,-0.09 0.17,0.11 0.25,0.35 0.25,0.73z"/>
   <path class="fil6" d="M76.01 45.14l0.22 -0.13c0.14,-0.08 0.24,-0.18 0.31,-0.28 0.06,-0.11 0.1,-0.23 0.1,-0.36 0,-0.14 -0.04,-0.21 -0.11,-0.23 -0.07,-0.02 -0.17,0.01 -0.31,0.09l-0.21 0.12 0 0.79zm0 0.32l0 0.97 -0.31 0.17 0 -2.41 0.54 -0.31c0.24,-0.14 0.42,-0.18 0.54,-0.13 0.11,0.05 0.17,0.19 0.17,0.42 0,0.3 -0.12,0.59 -0.36,0.86l0.53 0.76 -0.35 0.2 -0.45 -0.7 -0.31 0.17z"/>
   <path class="fil6" d="M77.69 44.24c0,0.3 0.05,0.5 0.15,0.6 0.09,0.1 0.23,0.09 0.41,-0.01 0.19,-0.11 0.32,-0.26 0.42,-0.47 0.09,-0.2 0.14,-0.46 0.14,-0.76 0,-0.29 -0.05,-0.49 -0.14,-0.59 -0.09,-0.1 -0.23,-0.1 -0.42,0.01 -0.18,0.11 -0.32,0.26 -0.41,0.47 -0.1,0.21 -0.15,0.46 -0.15,0.75zm1.45 -0.83c0,0.4 -0.08,0.74 -0.23,1.05 -0.16,0.31 -0.38,0.54 -0.66,0.7 -0.28,0.17 -0.5,0.19 -0.65,0.06 -0.16,-0.13 -0.23,-0.39 -0.23,-0.79 0,-0.4 0.07,-0.75 0.23,-1.05 0.15,-0.3 0.37,-0.53 0.65,-0.7 0.29,-0.16 0.5,-0.18 0.66,-0.05 0.15,0.13 0.23,0.39 0.23,0.78z"/>
   <path class="fil6" d="M80.38 42.6l0.7 -0.41 0 1.21c-0.12,0.12 -0.23,0.21 -0.33,0.29 -0.11,0.08 -0.22,0.16 -0.34,0.23 -0.29,0.17 -0.51,0.18 -0.66,0.06 -0.16,-0.13 -0.24,-0.39 -0.24,-0.78 0,-0.39 0.09,-0.75 0.27,-1.07 0.17,-0.32 0.41,-0.56 0.72,-0.74 0.2,-0.12 0.38,-0.18 0.56,-0.18l-0.11 0.39c-0.15,0 -0.31,0.04 -0.46,0.13 -0.2,0.12 -0.36,0.29 -0.48,0.52 -0.11,0.23 -0.17,0.48 -0.17,0.76 0,0.3 0.05,0.49 0.16,0.58 0.1,0.1 0.25,0.09 0.45,-0.03 0.1,-0.06 0.21,-0.13 0.32,-0.23l0 -0.62 -0.39 0.22 0 -0.33z"/>
   <polygon class="fil6" points="82.66,42.59 81.59,43.2 81.59,40.79 82.66,40.17 82.66,40.51 81.9,40.95 81.9,41.6 82.61,41.19 82.61,41.52 81.9,41.93 81.9,42.69 82.66,42.25 "/>
   <path class="fil6" d="M84.71 41.4l-0.38 0.22 -0.93 -1.38 -0.01 0 0.01 0.11c0.01,0.19 0.02,0.38 0.02,0.55l0 1.25 -0.28 0.16 0 -2.41 0.37 -0.22 0.93 1.38 0.01 0c-0.01,-0.03 -0.02,-1.91 -0.02,-1.91l0.28 -0.16 0 2.41z"/>
   <polygon class="fil20" points="69.87,30.18 69.87,32.58 69.51,32.78 69.51,30.87 69.48,30.88 69.22,31.64 68.85,31.85 69.33,30.49 "/>
   <polygon class="fil19" points="74.92,29.91 74.15,29.47 72.85,30.22 73.61,30.66 "/>
   <polygon class="fil19" points="78.82,27.66 78.05,27.21 76.75,27.97 77.52,28.41 "/>
   <polygon class="fil19" points="70.05,47.14 70.32,47.3 70.01,47.48 69.74,47.32 "/>
   <polygon class="fil18" points="81.32,43.04 81.59,43.2 81.59,40.79 81.32,40.63 "/>
   <polygon class="fil18" points="82.86,42.15 83.14,42.31 83.14,39.9 82.86,39.74 "/>
  </g>
  <g id="_2261303674544">
   <path class="fil21" d="M15.04 10.06l-1.39 -1.5 0 1.5 -0.45 0 0 -3.58 0.98 0c0.43,0 0.75,0.12 0.97,0.36 0.16,0.18 0.25,0.41 0.25,0.69 0,0.26 -0.08,0.48 -0.23,0.66 -0.14,0.17 -0.32,0.28 -0.55,0.33 -0.08,0.02 -0.22,0.04 -0.4,0.06l1.4 1.48 -0.58 0zm-1.39 -3.19l0 1.38 0.45 0c0.26,0 0.46,-0.05 0.6,-0.16 0.16,-0.12 0.24,-0.3 0.24,-0.53 0,-0.22 -0.07,-0.39 -0.19,-0.51 -0.13,-0.12 -0.32,-0.18 -0.58,-0.18l-0.52 0z"/>
   <path id="1" class="fil21" d="M18.46 8.96l-2.06 0c0.02,0.18 0.07,0.33 0.16,0.45 0.17,0.22 0.39,0.34 0.67,0.34 0.18,0 0.35,-0.06 0.52,-0.18 0.09,-0.07 0.16,-0.15 0.22,-0.25l0.36 0.13c-0.08,0.16 -0.18,0.29 -0.32,0.4 -0.23,0.18 -0.49,0.27 -0.78,0.27 -0.4,0 -0.73,-0.14 -0.97,-0.43 -0.2,-0.23 -0.29,-0.51 -0.29,-0.86 0,-0.38 0.11,-0.7 0.35,-0.94 0.23,-0.24 0.53,-0.36 0.89,-0.36 0.43,0 0.76,0.16 1,0.48 0.17,0.22 0.26,0.49 0.26,0.79 0,0.03 0,0.08 -0.01,0.16zm-2.05 -0.3l1.62 0c-0.01,-0.18 -0.06,-0.32 -0.14,-0.43 -0.07,-0.1 -0.16,-0.18 -0.27,-0.24 -0.13,-0.06 -0.27,-0.1 -0.41,-0.1 -0.19,0 -0.36,0.06 -0.5,0.18 -0.16,0.13 -0.26,0.32 -0.3,0.59z"/>
   <path id="2" class="fil21" d="M20.91 7.96l0 -1.48 0.41 0 0 3.58 -0.41 0 0 -0.42c-0.1,0.14 -0.2,0.24 -0.31,0.31 -0.17,0.11 -0.36,0.17 -0.57,0.17 -0.35,0 -0.64,-0.13 -0.86,-0.38 -0.2,-0.23 -0.31,-0.53 -0.31,-0.9 0,-0.25 0.05,-0.47 0.16,-0.68 0.09,-0.19 0.22,-0.35 0.41,-0.46 0.18,-0.12 0.38,-0.17 0.59,-0.17 0.18,0 0.35,0.04 0.5,0.11 0.14,0.06 0.27,0.17 0.39,0.32zm-0.8 -0.07c-0.28,0 -0.49,0.11 -0.64,0.34 -0.12,0.17 -0.18,0.38 -0.18,0.61 0,0.29 0.09,0.52 0.25,0.69 0.14,0.16 0.33,0.23 0.55,0.23 0.24,0 0.44,-0.09 0.6,-0.27 0.07,-0.09 0.13,-0.2 0.17,-0.34 0.04,-0.11 0.05,-0.22 0.05,-0.32 0,-0.29 -0.07,-0.52 -0.23,-0.69 -0.15,-0.17 -0.34,-0.25 -0.57,-0.25z"/>
   <path id="3" class="fil21" d="M23.58 9.17l0 -1.58 0.41 0 0 1.58c0,0.24 -0.03,0.41 -0.11,0.53 -0.08,0.13 -0.19,0.23 -0.35,0.31 -0.16,0.07 -0.32,0.11 -0.49,0.11 -0.3,0 -0.54,-0.09 -0.72,-0.26 -0.17,-0.16 -0.25,-0.39 -0.25,-0.69l0 -1.58 0.41 0 0 1.57c0,0.18 0.05,0.32 0.15,0.43 0.1,0.11 0.24,0.16 0.41,0.16 0.18,0 0.32,-0.06 0.43,-0.18 0.08,-0.09 0.11,-0.22 0.11,-0.4z"/>
   <path id="4" class="fil21" d="M26.41 9.47l0.25 0.28c-0.12,0.12 -0.24,0.2 -0.34,0.25 -0.18,0.08 -0.36,0.12 -0.56,0.12 -0.36,0 -0.65,-0.12 -0.89,-0.37 -0.22,-0.23 -0.33,-0.54 -0.33,-0.92 0,-0.27 0.06,-0.5 0.19,-0.72 0.11,-0.21 0.28,-0.37 0.5,-0.47 0.17,-0.07 0.35,-0.11 0.55,-0.11 0.35,0 0.65,0.12 0.9,0.37l-0.27 0.26c-0.18,-0.17 -0.39,-0.26 -0.63,-0.26 -0.25,0 -0.46,0.1 -0.62,0.29 -0.13,0.16 -0.2,0.37 -0.2,0.62 0,0.32 0.09,0.56 0.28,0.72 0.15,0.14 0.33,0.21 0.54,0.21 0.24,0 0.45,-0.09 0.63,-0.27z"/>
   <path id="5" class="fil21" d="M29.49 8.96l-2.06 0c0.02,0.18 0.07,0.33 0.16,0.45 0.16,0.22 0.39,0.34 0.66,0.34 0.18,0 0.36,-0.06 0.52,-0.18 0.1,-0.07 0.17,-0.15 0.22,-0.25l0.36 0.13c-0.07,0.16 -0.18,0.29 -0.31,0.4 -0.24,0.18 -0.5,0.27 -0.79,0.27 -0.4,0 -0.72,-0.14 -0.96,-0.43 -0.2,-0.23 -0.3,-0.51 -0.3,-0.86 0,-0.38 0.12,-0.7 0.36,-0.94 0.23,-0.24 0.53,-0.36 0.89,-0.36 0.42,0 0.75,0.16 1,0.48 0.17,0.22 0.25,0.49 0.25,0.79 0,0.03 0,0.08 0,0.16zm-2.06 -0.3l1.63 0c-0.02,-0.18 -0.06,-0.32 -0.14,-0.43 -0.08,-0.1 -0.17,-0.18 -0.28,-0.24 -0.12,-0.06 -0.26,-0.1 -0.4,-0.1 -0.2,0 -0.37,0.06 -0.51,0.18 -0.16,0.13 -0.26,0.32 -0.3,0.59z"/>
   <path id="6" class="fil0" d="M9.07 14.72l0.25 0.28c-0.13,0.12 -0.24,0.2 -0.35,0.25 -0.17,0.07 -0.36,0.11 -0.56,0.11 -0.35,0 -0.65,-0.12 -0.88,-0.37 -0.22,-0.23 -0.33,-0.54 -0.33,-0.91 0,-0.27 0.06,-0.51 0.18,-0.72 0.12,-0.21 0.29,-0.37 0.51,-0.47 0.17,-0.08 0.35,-0.12 0.54,-0.12 0.35,0 0.65,0.13 0.91,0.37l-0.27 0.27c-0.19,-0.18 -0.4,-0.26 -0.63,-0.26 -0.26,0 -0.47,0.09 -0.62,0.29 -0.14,0.16 -0.2,0.36 -0.2,0.62 0,0.31 0.09,0.55 0.27,0.72 0.16,0.14 0.34,0.21 0.55,0.21 0.23,0 0.44,-0.09 0.63,-0.27z"/>
   <path id="7" class="fil0" d="M10.91 12.78c0.39,0 0.71,0.14 0.97,0.43 0.19,0.23 0.29,0.52 0.29,0.87 0,0.38 -0.14,0.69 -0.4,0.95 -0.24,0.22 -0.53,0.33 -0.87,0.33 -0.25,0 -0.48,-0.06 -0.69,-0.19 -0.38,-0.23 -0.56,-0.6 -0.56,-1.1 0,-0.41 0.13,-0.74 0.38,-0.97 0.24,-0.22 0.53,-0.32 0.88,-0.32zm0 0.37c-0.27,0 -0.48,0.1 -0.64,0.29 -0.14,0.16 -0.21,0.37 -0.21,0.64 0,0.28 0.08,0.5 0.24,0.66 0.16,0.17 0.37,0.25 0.61,0.25 0.28,0 0.49,-0.11 0.65,-0.31 0.13,-0.17 0.19,-0.37 0.19,-0.61 0,-0.29 -0.08,-0.52 -0.25,-0.68 -0.16,-0.16 -0.35,-0.24 -0.59,-0.24z"/>
   <path id="8" class="fil0" d="M12.79 15.31l0 -2.48 0.41 0 0 0.35c0.09,-0.12 0.18,-0.21 0.27,-0.27 0.14,-0.09 0.29,-0.13 0.46,-0.13 0.23,0 0.42,0.06 0.57,0.2 0.1,0.09 0.16,0.2 0.18,0.32 0.02,0.1 0.03,0.21 0.03,0.34l0 1.67 -0.41 0 0 -1.58c0,-0.2 -0.03,-0.34 -0.09,-0.43 -0.08,-0.11 -0.21,-0.16 -0.39,-0.16 -0.18,0 -0.34,0.07 -0.46,0.21 -0.11,0.11 -0.16,0.26 -0.16,0.45l0 1.51 -0.41 0z"/>
   <path id="9" class="fil0" d="M17.07 13.51l-0.41 0c0,-0.09 -0.01,-0.15 -0.04,-0.2 -0.08,-0.13 -0.23,-0.2 -0.43,-0.2 -0.14,0 -0.25,0.03 -0.33,0.1 -0.08,0.06 -0.12,0.15 -0.12,0.25 0,0.09 0.02,0.16 0.07,0.21 0.06,0.06 0.13,0.1 0.23,0.13 0.04,0.02 0.13,0.04 0.25,0.08 0.3,0.08 0.5,0.18 0.61,0.28 0.13,0.13 0.2,0.29 0.2,0.49 0,0.23 -0.1,0.42 -0.3,0.56 -0.15,0.1 -0.34,0.15 -0.58,0.15 -0.37,0 -0.63,-0.11 -0.79,-0.34 -0.08,-0.1 -0.12,-0.24 -0.14,-0.42l0.41 0c0.01,0.11 0.04,0.2 0.1,0.27 0.09,0.11 0.23,0.16 0.42,0.16 0.14,0 0.25,-0.03 0.33,-0.1 0.08,-0.07 0.13,-0.16 0.13,-0.26 0,-0.11 -0.05,-0.2 -0.15,-0.28 -0.07,-0.05 -0.21,-0.1 -0.42,-0.15 -0.26,-0.07 -0.45,-0.16 -0.57,-0.27 -0.14,-0.13 -0.21,-0.29 -0.21,-0.48 0,-0.24 0.1,-0.43 0.3,-0.56 0.15,-0.1 0.34,-0.15 0.57,-0.15 0.33,0 0.56,0.09 0.72,0.29 0.09,0.11 0.14,0.26 0.15,0.44z"/>
   <path id="10" class="fil0" d="M19.17 14.42l0 -1.59 0.41 0 0 1.59c0,0.23 -0.04,0.41 -0.11,0.52 -0.08,0.14 -0.2,0.24 -0.36,0.32 -0.15,0.07 -0.32,0.1 -0.49,0.1 -0.29,0 -0.53,-0.08 -0.72,-0.26 -0.16,-0.16 -0.24,-0.39 -0.24,-0.68l0 -1.59 0.4 0 0 1.57c0,0.18 0.06,0.32 0.16,0.43 0.1,0.11 0.23,0.17 0.4,0.17 0.18,0 0.33,-0.06 0.43,-0.19 0.08,-0.08 0.12,-0.22 0.12,-0.39z"/>
   <path id="11" class="fil0" d="M20.33 15.31l0 -2.48 0.41 0 0 0.35c0.08,-0.12 0.16,-0.22 0.25,-0.28 0.13,-0.08 0.28,-0.13 0.44,-0.13 0.18,0 0.33,0.05 0.46,0.14 0.09,0.07 0.16,0.17 0.21,0.31 0.09,-0.14 0.18,-0.24 0.28,-0.31 0.14,-0.09 0.31,-0.13 0.51,-0.13 0.28,0 0.49,0.08 0.62,0.25 0.08,0.1 0.12,0.21 0.14,0.32 0.01,0.09 0.02,0.22 0.02,0.37l0 1.59 -0.42 0 0 -1.49c0,-0.18 0,-0.29 -0.02,-0.34 -0.02,-0.12 -0.08,-0.2 -0.16,-0.26 -0.09,-0.05 -0.19,-0.08 -0.32,-0.08 -0.19,0 -0.33,0.07 -0.43,0.2 -0.08,0.12 -0.12,0.27 -0.12,0.48l0 1.49 -0.41 0 0 -1.48c0,-0.22 -0.03,-0.38 -0.08,-0.48 -0.08,-0.14 -0.21,-0.21 -0.4,-0.21 -0.18,0 -0.32,0.06 -0.43,0.19 -0.09,0.12 -0.14,0.28 -0.14,0.5l0 1.48 -0.41 0z"/>
   <path id="12" class="fil0" d="M24.47 16.47l0 -3.64 0.41 0 0 0.45c0.1,-0.15 0.2,-0.26 0.3,-0.33 0.17,-0.12 0.37,-0.17 0.6,-0.17 0.29,0 0.54,0.09 0.75,0.27 0.27,0.25 0.41,0.58 0.41,1 0,0.42 -0.12,0.75 -0.37,1 -0.21,0.21 -0.48,0.32 -0.79,0.32 -0.19,0 -0.37,-0.05 -0.54,-0.13 -0.13,-0.07 -0.25,-0.17 -0.36,-0.32l0 1.55 -0.41 0zm1.24 -3.33c-0.29,0 -0.52,0.12 -0.67,0.37 -0.11,0.17 -0.16,0.36 -0.16,0.6 0,0.29 0.08,0.52 0.25,0.68 0.16,0.15 0.34,0.22 0.56,0.22 0.29,0 0.51,-0.11 0.66,-0.34 0.11,-0.17 0.16,-0.37 0.16,-0.6 0,-0.29 -0.07,-0.51 -0.22,-0.67 -0.15,-0.17 -0.35,-0.26 -0.58,-0.26z"/>
   <path id="13" class="fil0" d="M28.37 13.19l-0.38 0 0 1.61c0,0.06 0.02,0.1 0.04,0.12 0.02,0.02 0.07,0.03 0.15,0.03l0.19 0 0 0.36 -0.38 0c-0.14,0 -0.24,-0.03 -0.31,-0.1 -0.06,-0.05 -0.1,-0.15 -0.1,-0.29l0 -1.73 -0.34 0 0 -0.36 0.34 0 0 -0.78 0.41 0 0 0.78 0.38 0 0 0.36z"/>
   <path id="14" class="fil0" d="M28.95 12.83l0.41 0 0 2.48 -0.41 0 0 -2.48zm0.21 -0.96c0.08,0 0.14,0.03 0.19,0.09 0.05,0.05 0.07,0.11 0.07,0.18 0,0.08 -0.03,0.14 -0.09,0.2 -0.05,0.04 -0.1,0.06 -0.17,0.06 -0.08,0 -0.15,-0.03 -0.2,-0.09 -0.04,-0.05 -0.06,-0.11 -0.06,-0.17 0,-0.08 0.03,-0.15 0.08,-0.2 0.05,-0.05 0.11,-0.07 0.18,-0.07z"/>
   <path id="15" class="fil0" d="M31.25 12.78c0.39,0 0.71,0.14 0.96,0.43 0.19,0.23 0.29,0.52 0.29,0.87 0,0.38 -0.14,0.69 -0.4,0.95 -0.24,0.22 -0.53,0.33 -0.87,0.33 -0.25,0 -0.48,-0.06 -0.69,-0.19 -0.37,-0.23 -0.56,-0.6 -0.56,-1.1 0,-0.41 0.13,-0.74 0.39,-0.97 0.23,-0.22 0.53,-0.32 0.88,-0.32zm0 0.37c-0.27,0 -0.49,0.1 -0.65,0.29 -0.14,0.16 -0.2,0.37 -0.2,0.64 0,0.28 0.08,0.5 0.24,0.66 0.16,0.17 0.36,0.25 0.6,0.25 0.28,0 0.5,-0.11 0.66,-0.31 0.12,-0.17 0.18,-0.37 0.18,-0.61 0,-0.29 -0.08,-0.52 -0.25,-0.68 -0.16,-0.16 -0.35,-0.24 -0.58,-0.24z"/>
   <path id="16" class="fil0" d="M33.12 15.31l0 -2.48 0.41 0 0 0.35c0.09,-0.12 0.18,-0.21 0.27,-0.27 0.14,-0.09 0.29,-0.13 0.46,-0.13 0.24,0 0.43,0.06 0.57,0.2 0.1,0.09 0.16,0.2 0.19,0.32 0.02,0.1 0.03,0.21 0.03,0.34l0 1.67 -0.42 0 0 -1.58c0,-0.2 -0.03,-0.34 -0.08,-0.43 -0.09,-0.11 -0.21,-0.16 -0.39,-0.16 -0.19,0 -0.34,0.07 -0.47,0.21 -0.11,0.11 -0.16,0.26 -0.16,0.45l0 1.51 -0.41 0z"/>
   <path id="17" class="fil22" d="M12.95 18.02c0.39,0 0.71,0.15 0.96,0.44 0.2,0.23 0.29,0.52 0.29,0.87 0,0.38 -0.13,0.69 -0.4,0.94 -0.23,0.23 -0.52,0.34 -0.86,0.34 -0.26,0 -0.48,-0.06 -0.69,-0.19 -0.38,-0.24 -0.56,-0.61 -0.56,-1.11 0,-0.41 0.12,-0.73 0.38,-0.96 0.24,-0.22 0.53,-0.33 0.88,-0.33zm0 0.38c-0.27,0 -0.48,0.09 -0.64,0.28 -0.14,0.16 -0.21,0.37 -0.21,0.64 0,0.28 0.08,0.5 0.24,0.67 0.16,0.16 0.36,0.25 0.61,0.25 0.27,0 0.49,-0.11 0.65,-0.32 0.13,-0.16 0.19,-0.36 0.19,-0.6 0,-0.3 -0.09,-0.53 -0.25,-0.69 -0.16,-0.16 -0.36,-0.23 -0.59,-0.23z"/>
   <path id="18" class="fil22" d="M15.66 18.44l-0.38 0 0 2.11 -0.41 0 0 -2.11 -0.34 0 0 -0.36 0.34 0 0 -0.33c0,-0.24 0.05,-0.42 0.16,-0.55 0.13,-0.15 0.3,-0.23 0.52,-0.23 0.01,0 0.05,0 0.11,0.01l0 0.36c-0.13,0.02 -0.22,0.04 -0.26,0.07 -0.08,0.06 -0.12,0.17 -0.12,0.34l0 0.33 0.38 0 0 0.36z"/>
   <path id="19" class="fil23" d="M19.68 18.45l0 -1.47 0.41 0 0 3.57 -0.41 0 0 -0.42c-0.11,0.14 -0.21,0.24 -0.31,0.31 -0.17,0.11 -0.37,0.17 -0.58,0.17 -0.35,0 -0.63,-0.12 -0.85,-0.37 -0.21,-0.24 -0.31,-0.54 -0.31,-0.91 0,-0.24 0.05,-0.47 0.15,-0.68 0.09,-0.19 0.23,-0.34 0.41,-0.46 0.18,-0.12 0.38,-0.17 0.6,-0.17 0.17,0 0.34,0.04 0.5,0.11 0.13,0.06 0.26,0.17 0.39,0.32zm-0.8 -0.07c-0.28,0 -0.5,0.11 -0.65,0.34 -0.11,0.17 -0.17,0.38 -0.17,0.61 0,0.29 0.08,0.52 0.25,0.69 0.14,0.16 0.32,0.23 0.54,0.23 0.25,0 0.45,-0.09 0.6,-0.27 0.08,-0.09 0.14,-0.2 0.18,-0.34 0.03,-0.11 0.05,-0.22 0.05,-0.32 0,-0.29 -0.08,-0.52 -0.23,-0.69 -0.15,-0.16 -0.34,-0.25 -0.57,-0.25z"/>
   <path id="20" class="fil23" d="M20.9 18.08l0.41 0 0 2.47 -0.41 0 0 -2.47zm0.21 -0.96c0.08,0 0.14,0.03 0.2,0.09 0.04,0.05 0.06,0.11 0.06,0.18 0,0.07 -0.03,0.14 -0.09,0.19 -0.04,0.04 -0.1,0.06 -0.17,0.06 -0.08,0 -0.14,-0.02 -0.19,-0.08 -0.05,-0.05 -0.07,-0.11 -0.07,-0.18 0,-0.08 0.03,-0.14 0.09,-0.2 0.04,-0.04 0.1,-0.06 0.17,-0.06z"/>
   <path id="21" class="fil23" d="M24.43 19.45l-2.06 0c0.02,0.18 0.07,0.33 0.16,0.45 0.16,0.23 0.39,0.34 0.67,0.34 0.17,0 0.35,-0.06 0.51,-0.18 0.1,-0.07 0.17,-0.15 0.23,-0.25l0.36 0.13c-0.08,0.16 -0.19,0.29 -0.32,0.4 -0.24,0.18 -0.5,0.27 -0.78,0.27 -0.41,0 -0.73,-0.14 -0.97,-0.43 -0.2,-0.23 -0.3,-0.51 -0.3,-0.86 0,-0.38 0.12,-0.69 0.36,-0.94 0.23,-0.24 0.53,-0.36 0.89,-0.36 0.42,0 0.76,0.16 1,0.48 0.17,0.22 0.26,0.49 0.26,0.79 0,0.03 -0.01,0.08 -0.01,0.16zm-2.06 -0.3l1.63 0c-0.01,-0.18 -0.06,-0.32 -0.14,-0.43 -0.07,-0.1 -0.16,-0.18 -0.27,-0.24 -0.13,-0.06 -0.27,-0.1 -0.41,-0.1 -0.2,0 -0.36,0.06 -0.51,0.18 -0.15,0.13 -0.25,0.32 -0.3,0.59z"/>
   <path id="22" class="fil23" d="M26.58 18.75l-0.41 0c0,-0.08 -0.01,-0.15 -0.04,-0.19 -0.08,-0.14 -0.22,-0.21 -0.43,-0.21 -0.14,0 -0.25,0.04 -0.33,0.1 -0.08,0.07 -0.12,0.15 -0.12,0.26 0,0.09 0.03,0.16 0.07,0.2 0.06,0.06 0.14,0.11 0.23,0.14 0.04,0.01 0.13,0.04 0.25,0.07 0.3,0.09 0.5,0.18 0.61,0.29 0.13,0.13 0.2,0.29 0.2,0.48 0,0.24 -0.1,0.43 -0.3,0.57 -0.14,0.1 -0.34,0.15 -0.58,0.15 -0.37,0 -0.63,-0.11 -0.79,-0.34 -0.08,-0.11 -0.12,-0.25 -0.14,-0.42l0.41 0c0.01,0.11 0.04,0.2 0.1,0.26 0.09,0.11 0.23,0.17 0.42,0.17 0.14,0 0.25,-0.04 0.33,-0.1 0.09,-0.07 0.13,-0.16 0.13,-0.26 0,-0.12 -0.05,-0.21 -0.15,-0.28 -0.07,-0.05 -0.21,-0.11 -0.41,-0.16 -0.26,-0.07 -0.46,-0.16 -0.58,-0.27 -0.14,-0.12 -0.2,-0.28 -0.2,-0.48 0,-0.24 0.09,-0.42 0.29,-0.56 0.15,-0.1 0.34,-0.15 0.58,-0.15 0.32,0 0.55,0.1 0.71,0.29 0.09,0.12 0.14,0.27 0.15,0.44z"/>
   <path id="23" class="fil23" d="M29.53 19.45l-2.06 0c0.02,0.18 0.07,0.33 0.16,0.45 0.17,0.23 0.39,0.34 0.67,0.34 0.18,0 0.35,-0.06 0.52,-0.18 0.09,-0.07 0.16,-0.15 0.22,-0.25l0.36 0.13c-0.08,0.16 -0.18,0.29 -0.32,0.4 -0.23,0.18 -0.49,0.27 -0.78,0.27 -0.4,0 -0.73,-0.14 -0.97,-0.43 -0.2,-0.23 -0.29,-0.51 -0.29,-0.86 0,-0.38 0.11,-0.69 0.35,-0.94 0.23,-0.24 0.53,-0.36 0.89,-0.36 0.43,0 0.76,0.16 1,0.48 0.17,0.22 0.26,0.49 0.26,0.79 0,0.03 0,0.08 -0.01,0.16zm-2.05 -0.3l1.62 0c-0.01,-0.18 -0.06,-0.32 -0.14,-0.43 -0.07,-0.1 -0.16,-0.18 -0.27,-0.24 -0.13,-0.06 -0.27,-0.1 -0.41,-0.1 -0.19,0 -0.36,0.06 -0.5,0.18 -0.16,0.13 -0.26,0.32 -0.3,0.59z"/>
   <polygon id="24" class="fil23" points="30.54,16.98 30.54,20.55 30.13,20.55 30.13,16.98 "/>
   <polygon id="25" class="fil22" points="8.24,25.14 8.88,23.32 9.3,23.32 8.43,25.8 8.05,25.8 7.48,23.92 6.89,25.8 6.5,25.8 5.65,23.32 6.07,23.32 6.71,25.14 7.28,23.32 7.68,23.32 "/>
   <path id="26" class="fil22" d="M9.74 23.32l0.41 0 0 2.48 -0.41 0 0 -2.48zm0.21 -0.96c0.08,0 0.15,0.03 0.2,0.09 0.04,0.05 0.06,0.11 0.06,0.18 0,0.08 -0.03,0.14 -0.09,0.2 -0.04,0.04 -0.1,0.06 -0.17,0.06 -0.08,0 -0.14,-0.03 -0.19,-0.09 -0.05,-0.05 -0.07,-0.11 -0.07,-0.17 0,-0.08 0.03,-0.15 0.09,-0.2 0.04,-0.05 0.1,-0.07 0.17,-0.07z"/>
   <path id="27" class="fil22" d="M11.78 23.68l-0.37 0 0 1.61c0,0.06 0.01,0.1 0.03,0.12 0.03,0.02 0.08,0.03 0.15,0.03l0.19 0 0 0.36 -0.38 0c-0.14,0 -0.24,-0.03 -0.31,-0.09 -0.06,-0.06 -0.09,-0.16 -0.09,-0.3l0 -1.73 -0.35 0 0 -0.36 0.35 0 0 -0.77 0.41 0 0 0.77 0.37 0 0 0.36z"/>
   <path id="28" class="fil22" d="M12.37 22.22l0.41 0 0 1.45c0.21,-0.27 0.46,-0.4 0.74,-0.4 0.15,0 0.29,0.03 0.43,0.11 0.14,0.08 0.23,0.19 0.28,0.33 0.04,0.11 0.06,0.25 0.06,0.43l0 1.66 -0.41 0 0 -1.65c0,-0.16 -0.04,-0.29 -0.12,-0.38 -0.08,-0.09 -0.19,-0.14 -0.34,-0.14 -0.19,0 -0.35,0.07 -0.48,0.22 -0.07,0.08 -0.11,0.15 -0.13,0.23 -0.02,0.08 -0.03,0.17 -0.03,0.27l0 1.45 -0.41 0 0 -3.58z"/>
   <path id="29" class="fil23" d="M16.7 22.22l0.41 0 0 1.45c0.21,-0.27 0.46,-0.4 0.74,-0.4 0.15,0 0.3,0.03 0.43,0.11 0.14,0.08 0.24,0.19 0.29,0.33 0.04,0.11 0.05,0.25 0.05,0.43l0 1.66 -0.41 0 0 -1.65c0,-0.16 -0.04,-0.29 -0.12,-0.38 -0.07,-0.09 -0.19,-0.14 -0.34,-0.14 -0.19,0 -0.35,0.07 -0.48,0.22 -0.06,0.08 -0.11,0.15 -0.13,0.23 -0.02,0.08 -0.03,0.17 -0.03,0.27l0 1.45 -0.41 0 0 -3.58z"/>
   <path id="30" class="fil23" d="M19.43 23.32l0.4 0 0 2.48 -0.4 0 0 -2.48zm0.2 -0.96c0.08,0 0.15,0.03 0.2,0.09 0.04,0.05 0.06,0.11 0.06,0.18 0,0.08 -0.03,0.14 -0.08,0.2 -0.05,0.04 -0.11,0.06 -0.18,0.06 -0.08,0 -0.14,-0.03 -0.19,-0.09 -0.05,-0.05 -0.07,-0.11 -0.07,-0.17 0,-0.08 0.03,-0.15 0.09,-0.2 0.04,-0.05 0.1,-0.07 0.17,-0.07z"/>
   <path id="31" class="fil23" d="M22.5 23.7l0 -1.48 0.42 0 0 3.58 -0.42 0 0 -0.43c-0.1,0.14 -0.2,0.25 -0.3,0.32 -0.17,0.11 -0.37,0.16 -0.58,0.16 -0.35,0 -0.63,-0.12 -0.86,-0.37 -0.2,-0.23 -0.31,-0.53 -0.31,-0.91 0,-0.24 0.06,-0.47 0.16,-0.68 0.09,-0.19 0.23,-0.34 0.41,-0.46 0.18,-0.11 0.38,-0.17 0.6,-0.17 0.17,0 0.34,0.04 0.5,0.12 0.13,0.06 0.26,0.16 0.38,0.32zm-0.79 -0.07c-0.28,0 -0.5,0.11 -0.65,0.34 -0.12,0.17 -0.17,0.37 -0.17,0.61 0,0.29 0.08,0.52 0.24,0.69 0.15,0.15 0.33,0.23 0.55,0.23 0.24,0 0.44,-0.09 0.6,-0.27 0.08,-0.09 0.14,-0.2 0.18,-0.35 0.03,-0.11 0.05,-0.21 0.05,-0.32 0,-0.28 -0.08,-0.51 -0.24,-0.68 -0.15,-0.17 -0.34,-0.25 -0.56,-0.25z"/>
   <path id="32" class="fil23" d="M23.73 25.8l0 -2.48 0.41 0 0 0.42c0.07,-0.16 0.15,-0.26 0.23,-0.33 0.13,-0.1 0.29,-0.15 0.47,-0.15 0.03,0 0.06,0 0.09,0.01l0 0.41c-0.06,-0.01 -0.1,-0.01 -0.11,-0.01 -0.23,0 -0.41,0.1 -0.53,0.28 -0.07,0.1 -0.11,0.2 -0.12,0.3 -0.02,0.09 -0.03,0.18 -0.03,0.29l0 1.26 -0.41 0z"/>
   <path id="33" class="fil23" d="M27.3 23.73l0 -0.41 0.41 0 0 2.48 -0.41 0 0 -0.48c-0.24,0.36 -0.54,0.53 -0.9,0.53 -0.35,0 -0.64,-0.12 -0.86,-0.38 -0.21,-0.23 -0.31,-0.53 -0.31,-0.9 0,-0.26 0.06,-0.49 0.17,-0.7 0.1,-0.2 0.25,-0.35 0.44,-0.46 0.18,-0.09 0.37,-0.14 0.57,-0.14 0.21,0 0.41,0.05 0.58,0.16 0.1,0.06 0.2,0.16 0.31,0.3zm-0.83 -0.1c-0.26,0 -0.46,0.1 -0.6,0.29 -0.14,0.19 -0.2,0.41 -0.2,0.66 0,0.29 0.08,0.52 0.26,0.7 0.15,0.14 0.33,0.22 0.53,0.22 0.26,0 0.47,-0.11 0.64,-0.32 0.14,-0.18 0.21,-0.4 0.21,-0.65 0,-0.26 -0.08,-0.48 -0.23,-0.64 -0.16,-0.17 -0.36,-0.26 -0.61,-0.26z"/>
   <path id="34" class="fil23" d="M30.37 23.75l0 -0.43 0.4 0 0 2.49c0,0.28 -0.04,0.5 -0.14,0.67 -0.11,0.2 -0.27,0.35 -0.49,0.45 -0.17,0.08 -0.37,0.12 -0.61,0.12 -0.45,0 -0.82,-0.15 -1.09,-0.45l0.28 -0.28c0.09,0.11 0.17,0.18 0.24,0.21 0.15,0.1 0.34,0.15 0.57,0.15 0.28,0 0.5,-0.08 0.65,-0.24 0.12,-0.14 0.19,-0.33 0.19,-0.6l0 -0.51c-0.11,0.16 -0.22,0.27 -0.33,0.35 -0.18,0.12 -0.37,0.17 -0.59,0.17 -0.19,0 -0.38,-0.04 -0.54,-0.14 -0.2,-0.12 -0.35,-0.27 -0.45,-0.47 -0.1,-0.21 -0.15,-0.43 -0.15,-0.67 0,-0.26 0.06,-0.51 0.17,-0.73 0.21,-0.38 0.54,-0.58 1.01,-0.58 0.18,0 0.36,0.05 0.51,0.14 0.13,0.07 0.25,0.19 0.37,0.35zm-0.81 -0.11c-0.26,0 -0.46,0.09 -0.62,0.29 -0.13,0.16 -0.2,0.36 -0.2,0.62 0,0.31 0.1,0.55 0.29,0.73 0.15,0.13 0.32,0.2 0.52,0.2 0.25,0 0.46,-0.1 0.63,-0.3 0.11,-0.14 0.17,-0.34 0.17,-0.61 0,-0.3 -0.06,-0.51 -0.19,-0.66 -0.16,-0.18 -0.36,-0.27 -0.6,-0.27z"/>
   <path id="35" class="fil23" d="M33.88 24.69l-2.06 0c0.02,0.18 0.08,0.34 0.16,0.46 0.17,0.22 0.39,0.33 0.67,0.33 0.18,0 0.35,-0.06 0.52,-0.18 0.09,-0.06 0.17,-0.14 0.22,-0.24l0.36 0.13c-0.07,0.15 -0.18,0.29 -0.32,0.39 -0.23,0.19 -0.49,0.28 -0.78,0.28 -0.4,0 -0.72,-0.15 -0.97,-0.43 -0.19,-0.23 -0.29,-0.52 -0.29,-0.86 0,-0.39 0.12,-0.7 0.35,-0.94 0.24,-0.24 0.53,-0.36 0.9,-0.36 0.42,0 0.75,0.16 0.99,0.47 0.18,0.23 0.26,0.49 0.26,0.79 0,0.03 0,0.09 -0.01,0.16zm-2.05 -0.3l1.63 0c-0.02,-0.17 -0.07,-0.31 -0.15,-0.42 -0.07,-0.1 -0.16,-0.18 -0.27,-0.24 -0.13,-0.07 -0.26,-0.1 -0.41,-0.1 -0.19,0 -0.36,0.06 -0.5,0.18 -0.16,0.12 -0.26,0.32 -0.3,0.58z"/>
   <path id="36" class="fil23" d="M34.48 25.8l0 -2.48 0.41 0 0 0.35c0.09,-0.12 0.19,-0.21 0.28,-0.27 0.14,-0.09 0.29,-0.13 0.46,-0.13 0.23,0 0.42,0.06 0.57,0.2 0.09,0.09 0.16,0.2 0.18,0.32 0.02,0.1 0.03,0.21 0.03,0.34l0 1.67 -0.41 0 0 -1.58c0,-0.2 -0.03,-0.34 -0.09,-0.42 -0.08,-0.11 -0.21,-0.17 -0.39,-0.17 -0.18,0 -0.34,0.07 -0.47,0.21 -0.1,0.11 -0.16,0.26 -0.16,0.45l0 1.51 -0.41 0z"/>
   <g>
    <g>
     <path class="fil24" d="M17.01 33.53l-12.31 0c-2.59,0 -4.7,-2.1 -4.7,-4.69l0 -3.42 1.69 0 0 3.42c0,1.66 1.35,3.01 3.01,3.01l12.31 0 0 1.68z"/>
     <path class="fil25" d="M1.69 25.42l-1.69 0 0 2.75c0.54,-0.29 1.11,-0.54 1.69,-0.73l0 -2.02z"/>
     <path class="fil25" d="M9.58 33.53l7.43 0 0 -1.68 -5.15 0c-0.86,0.43 -1.63,0.98 -2.28,1.68z"/>
    </g>
    <g>
     <path class="fil24" d="M25.05 0.03l12.32 0c2.59,0 4.69,2.1 4.69,4.69l0 3.42 -1.68 0 0 -3.42c0,-1.66 -1.35,-3.01 -3.01,-3.01l-12.32 0 0 -1.68z"/>
     <path class="fil25" d="M40.38 8.14l1.68 0 0 -2.75c-0.54,0.29 -1.1,0.54 -1.68,0.74l0 2.01z"/>
     <path class="fil25" d="M26.75 0l-7.43 0 0 1.69 5.16 0c0.85,-0.44 1.62,-0.99 2.27,-1.69z"/>
    </g>
    <path class="fil23" d="M2.93 10.48l0 -1.9c0,-0.19 -0.11,-0.37 -0.29,-0.48l-0.57 -0.34 -0.03 -0.02 0 -0.64c0,-0.22 -0.14,-0.4 -0.31,-0.4l-0.06 0 0 -1.05c0,-0.19 0.07,-0.38 0.2,-0.53l0.99 -1.15c0.06,-0.08 0.06,-0.18 -0.01,-0.25l-0.06 -0.06 0 0 -0.13 -0.13c-0.08,-0.09 -0.23,-0.1 -0.32,-0.02l-1.27 0.96c-0.35,0.26 -0.56,0.65 -0.56,1.06l0 1.17 -0.03 0c-0.08,0 -0.16,0.04 -0.22,0.12l-0.17 0.21 0 0.01 0 0 -0.01 0 0 0.01 0 0 0 0.01 -0.01 0 0 0 0 0.01 0 0 -0.01 0 0 0.01 0 0 0 0.01 -0.01 0 0 0 0 0.01 0 0 0 0.01 -0.01 0 0 0.01 0 0 0 0 0 0.01 0 0 0 0 -0.01 0.01 0 0 0 0.01 0 0 0 0.01 0 0 0 0 -0.01 0 0 0.01 0 0 0 0.01 0 0 0 0.01 0 0 0 0 -0.01 0.01 0 0 0 0 0 0.01 0 0 0 0 0 0 0 0.01 0 0 0 0 0 0 0 0.01 0 0 0 0 0 0.01 0 0 0 0 -0.01 0.01 0 0 0 0 0 0 0 0.01 0 0 0 0.01 0 0 0 0.01 0 0 0 0 0 0.01 0 0 0 0 0 0 0 0.01 0 0 0 0 0 0.01 0 0 0 0 0 0 0 0.01 0 0 0 3.63 0 0.01 0 0.01 0 0.01 0 0.01 0 0.01 0 0.01 0.01 0.01 0 0.01 0 0.01 0 0.01 0 0.01 0 0.01 0.01 0.01 0 0.01 0 0.01 0 0.01 0.01 0.01 0 0.01 0 0.01 0.01 0 0 0.01 0.01 0.01 0 0.01 0 0.01 0.01 0.01 0 0 0 0 0.01 0.01 0 0.01 0.01 0.01 0 0 0 0 0.01 0.01 0 0.01 0.01 0 0 0.01 0.01 0.01 0 0 0.01 0.01 0 0 0.01 0.01 0 0 0.01 0.01 0 0 0.01 0.01 0.01 0 0 0.01 0.01 0 0.01 0.01 0 0 0.01 0 0.01 0.01 0 0 0 0 0.01 0 0.01 0.01 0 0 0.01 0 0 0 0 0 0.01 0.01 0 0 0.01 0 0.01 0 0 0 0 0 0 0 0.01 0 0 0 0.01 0 0 0 0.01 0 0 0 0.01 0 0 0 0 0.01 0 0 0.01 0 0 0 1.42 0c0.14,0 0.26,-0.13 0.3,-0.3l0.04 0 0.2 0c0.36,0 0.66,-0.26 0.66,-0.58zm0.78 -5.94c-0.6,0.02 -0.84,-0.76 -0.35,-1.09l2.46 -1.66 -0.01 0.01 -2.6 1.43c-0.52,0.28 -1.1,-0.29 -0.81,-0.81 0.74,-1.34 2.42,-2.84 6.19,-2.31 -1.26,3.58 -3.35,4.38 -4.88,4.43zm-1.67 3.75l0.03 0.02 0 0 0.28 0.17c0.04,0.02 0.06,0.06 0.06,0.1l0 1.9c0,0.07 -0.06,0.13 -0.14,0.13l-0.2 0 -0.03 0 0 -2.32z"/>
    <path class="fil23" d="M39.14 23.05l0 1.91c0,0.19 0.11,0.36 0.28,0.47l0.57 0.34 0 0 0.04 0.02 0 0.64c0,0.23 0.14,0.41 0.31,0.41l0.05 0 0 1.05c0,0.19 -0.07,0.37 -0.2,0.53l-0.98 1.14c-0.07,0.08 -0.06,0.19 0.01,0.26l0.18 0.19c0.09,0.08 0.23,0.09 0.33,0.02l1.27 -0.96c0.35,-0.27 0.55,-0.66 0.55,-1.06l0 -1.17 0.03 0c0.09,0 0.16,-0.05 0.22,-0.12l0.17 -0.22c0.06,-0.07 0.09,-0.18 0.09,-0.28l0 -3.64c0,-0.22 -0.14,-0.4 -0.31,-0.4l-1.41 0c-0.15,0 -0.27,0.13 -0.3,0.3l-0.05 0 0 0 -0.2 0c-0.36,0 -0.65,0.25 -0.65,0.57zm-0.78 5.95c0.59,-0.02 0.84,0.76 0.34,1.09l-2.46 1.65 0.02 -0.01 2.59 -1.42c0.52,-0.29 1.1,0.29 0.81,0.8 -0.74,1.34 -2.42,2.85 -6.19,2.31 1.26,-3.57 3.36,-4.37 4.89,-4.42zm1.67 -3.76l-0.04 -0.02 0 0 -0.28 -0.16c-0.03,-0.03 -0.06,-0.06 -0.06,-0.1l0 -1.91c0,-0.07 0.06,-0.12 0.14,-0.12l0.2 0 0.04 0 0 2.31z"/>
   </g>
  </g>
 </g>
</svg>
