<?xml version="1.0" encoding="UTF-8"?>
<!DOCTYPE svg PUBLIC "-//W3C//DTD SVG 1.1//EN" "http://www.w3.org/Graphics/SVG/1.1/DTD/svg11.dtd">
<!-- Creator: CorelDRAW 2020 (64-Bit) -->
<svg xmlns="http://www.w3.org/2000/svg" xml:space="preserve" width="2102px" height="1213px" version="1.1" style="shape-rendering:geometricPrecision; text-rendering:geometricPrecision; image-rendering:optimizeQuality; fill-rule:evenodd; clip-rule:evenodd"
viewBox="0 0 558.33 322.35"
 xmlns:xlink="http://www.w3.org/1999/xlink"
 xmlns:xodm="http://www.corel.com/coreldraw/odm/2003">
 <g id="Capa_x0020_1">
  <metadata id="CorelCorpID_0Corel-Layer"/>
  <g id="_1606277314448">
   <g>
    <image x="40.45" y="21.89" width="478.09" height="277.91" xlink:href="R_Images\R_ImgID1.png"/>
   </g>
   <g>
    <image x="49.07" y="27.19" width="460.85" height="267.3" xlink:href="R_Images\R_ImgID2.png"/>
   </g>
   <g>
    <image x="58.35" y="32.5" width="442.29" height="256.69" xlink:href="R_Images\R_ImgID3.png"/>
   </g>
   <g>
    <image x="58.35" y="33.16" width="438.97" height="256.02" xlink:href="R_Images\R_ImgID4.png"/>
   </g>
   <g>
    <image x="61.67" y="35.15" width="438.31" height="253.37" xlink:href="R_Images\R_ImgID5.png"/>
   </g>
   <g>
    <image x="0" y="0" width="558.33" height="322.35" xlink:href="R_Images\R_ImgID6.png"/>
   </g>
   <g>
    <image x="0.66" y="0" width="557.66" height="322.35" xlink:href="R_Images\R_ImgID7.png"/>
   </g>
   <g>
    <image x="400.51" y="161.18" width="48.41" height="62.35" xlink:href="R_Images\R_ImgID8.png"/>
   </g>
   <g>
    <image x="196.28" y="219.54" width="212.19" height="39.8" xlink:href="R_Images\R_ImgID9.png"/>
   </g>
   <g>
    <image x="110.07" y="63.01" width="196.94" height="130.66" xlink:href="R_Images\R_ImgID10.png"/>
   </g>
   <g>
    <image x="121.35" y="191.69" width="78.91" height="53.72" xlink:href="R_Images\R_ImgID11.png"/>
   </g>
   <g>
    <image x="307.01" y="64.34" width="141.9" height="96.17" xlink:href="R_Images\R_ImgID12.png"/>
   </g>
   <g>
    <image x="82.89" y="45.77" width="392.55" height="226.84" xlink:href="R_Images\R_ImgID13.png"/>
   </g>
   <g>
    <image x="133.28" y="76.28" width="293.75" height="169.8" xlink:href="R_Images\R_ImgID14.png"/>
   </g>
   <g>
    <image x="29.18" y="15.92" width="503.95" height="291.84" xlink:href="R_Images\R_ImgID15.png"/>
   </g>
  </g>
 </g>
</svg>
