<svg xmlns="http://www.w3.org/2000/svg" xml:space="preserve" width="5.6197mm" height="4.6305mm" version="1.1" style="shape-rendering:geometricPrecision; text-rendering:geometricPrecision; image-rendering:optimizeQuality; fill-rule:evenodd; clip-rule:evenodd"
viewBox="0 0 6.5 5.36"
 xmlns:xlink="http://www.w3.org/1999/xlink"
 xmlns:xodm="http://www.corel.com/coreldraw/odm/2003">
 <defs>
  <style type="text/css">
   <![CDATA[
    .fil0 {fill:#CDBE78;fill-rule:nonzero}
   ]]>
  </style>
 </defs>
 <g id="Capa_x0020_1">
  <metadata id="CorelCorpID_0Corel-Layer"/>
  <path class="fil0" d="M6.47 0.64c-0.21,0.09 -0.43,0.15 -0.66,0.19 0.11,-0.02 0.26,-0.21 0.32,-0.29 0.09,-0.12 0.17,-0.25 0.22,-0.4l-0 -0.03 -0.04 0c-0.25,0.13 -0.51,0.23 -0.78,0.3l-0.05 -0.01 -0.07 -0.07c-0.12,-0.1 -0.24,-0.17 -0.38,-0.23 -0.18,-0.07 -0.38,-0.11 -0.58,-0.09 -0.19,0.01 -0.38,0.07 -0.55,0.16 -0.17,0.09 -0.32,0.21 -0.44,0.36 -0.13,0.15 -0.22,0.34 -0.26,0.53 -0.05,0.19 -0.04,0.37 -0.01,0.56l-0.03 0.03c-1.07,-0.16 -1.96,-0.54 -2.68,-1.36 -0.03,-0.04 -0.05,-0.04 -0.07,0 -0.32,0.47 -0.16,1.23 0.23,1.61 0.05,0.05 0.11,0.1 0.17,0.15 -0.02,0 -0.28,-0.02 -0.52,-0.15l-0.05 0.03c-0,0.05 0,0.1 0.01,0.15 0.06,0.48 0.39,0.92 0.85,1.1 0.05,0.02 0.11,0.04 0.17,0.05 -0.1,0.02 -0.21,0.04 -0.51,0.02 -0.04,-0.01 -0.05,0.01 -0.04,0.05 0.22,0.61 0.71,0.79 1.07,0.89 0.05,0.01 0.1,0.01 0.14,0.02l-0.01 0.01c-0.12,0.18 -0.53,0.32 -0.73,0.39 -0.35,0.12 -0.73,0.18 -1.11,0.14 -0.06,-0.01 -0.07,-0.01 -0.09,0l0.02 0.04c0.08,0.05 0.15,0.09 0.23,0.14 0.24,0.12 0.48,0.22 0.74,0.3 1.33,0.37 2.82,0.1 3.82,-0.89 0.78,-0.78 1.06,-1.85 1.06,-2.93 0,-0.04 0.05,-0.06 0.08,-0.09 0.2,-0.15 0.37,-0.34 0.52,-0.54 0.03,-0.05 0.03,-0.09 0.03,-0.1l0 -0.01 -0.03 0z"/>
 </g>
</svg>
