<svg xmlns="http://www.w3.org/2000/svg" xml:space="preserve" width="5.6444mm" height="3.9512mm" version="1.1" style="shape-rendering:geometricPrecision; text-rendering:geometricPrecision; image-rendering:optimizeQuality; fill-rule:evenodd; clip-rule:evenodd"
viewBox="0 0 6.15 4.3"
 xmlns:xlink="http://www.w3.org/1999/xlink"
 xmlns:xodm="http://www.corel.com/coreldraw/odm/2003">
 <defs>
  <style type="text/css">
   <![CDATA[
    .fil0 {fill:#CDBE78;fill-rule:nonzero}
   ]]>
  </style>
 </defs>
 <g id="Capa_x0020_1">
  <metadata id="CorelCorpID_0Corel-Layer"/>
  <path class="fil0" d="M4.12 2.27l-1.55 0.76c-0.06,0.03 -0.27,-0.01 -0.27,-0.08l0 -1.57c0,-0.07 0.21,-0.11 0.27,-0.08l1.48 0.81c0.06,0.04 0.13,0.12 0.06,0.16zm2.03 -0.92c0,-0.74 -0.6,-1.35 -1.35,-1.35l-3.45 0c-0.75,0 -1.35,0.6 -1.35,1.35l0 1.61c0,0.75 0.6,1.35 1.35,1.35l3.45 0c0.75,0 1.35,-0.6 1.35,-1.35l0 -1.61z"/>
 </g>
</svg>
